<mxfile host="app.diagrams.net" modified="2024-01-23T14:50:43.174Z" agent="Mozilla/5.0 (Windows NT 10.0; Win64; x64) AppleWebKit/537.36 (KHTML, like Gecko) Chrome/120.0.0.0 Safari/537.36" etag="7v2VA8SbgCXc4MlNG8yb" version="22.1.21" type="github">
  <diagram name="Trang-1" id="kp891w1mlpmKAhkwXl1S">
    <mxGraphModel dx="2440" dy="653" grid="1" gridSize="10" guides="1" tooltips="1" connect="1" arrows="1" fold="1" page="1" pageScale="1" pageWidth="827" pageHeight="1169" math="0" shadow="0">
      <root>
        <mxCell id="0" />
        <mxCell id="1" parent="0" />
        <mxCell id="im__YNONFGmedxCCDfSG-3" style="edgeStyle=orthogonalEdgeStyle;rounded=0;orthogonalLoop=1;jettySize=auto;html=1;exitX=0.5;exitY=1;exitDx=0;exitDy=0;entryX=0.5;entryY=0;entryDx=0;entryDy=0;" parent="1" source="im__YNONFGmedxCCDfSG-1" target="im__YNONFGmedxCCDfSG-2" edge="1">
          <mxGeometry relative="1" as="geometry" />
        </mxCell>
        <mxCell id="im__YNONFGmedxCCDfSG-1" value="về home" style="ellipse;whiteSpace=wrap;html=1;" parent="1" vertex="1">
          <mxGeometry x="294" y="140" width="86" height="40" as="geometry" />
        </mxCell>
        <mxCell id="im__YNONFGmedxCCDfSG-5" style="edgeStyle=orthogonalEdgeStyle;rounded=0;orthogonalLoop=1;jettySize=auto;html=1;exitX=0.5;exitY=1;exitDx=0;exitDy=0;entryX=0.5;entryY=0;entryDx=0;entryDy=0;" parent="1" source="im__YNONFGmedxCCDfSG-2" target="im__YNONFGmedxCCDfSG-4" edge="1">
          <mxGeometry relative="1" as="geometry" />
        </mxCell>
        <mxCell id="im__YNONFGmedxCCDfSG-2" value="Chạy tới DKT" style="whiteSpace=wrap;html=1;" parent="1" vertex="1">
          <mxGeometry x="277" y="210" width="113" height="30" as="geometry" />
        </mxCell>
        <mxCell id="im__YNONFGmedxCCDfSG-7" style="edgeStyle=orthogonalEdgeStyle;rounded=0;orthogonalLoop=1;jettySize=auto;html=1;exitX=0.5;exitY=1;exitDx=0;exitDy=0;entryX=0.5;entryY=0;entryDx=0;entryDy=0;" parent="1" source="im__YNONFGmedxCCDfSG-4" target="im__YNONFGmedxCCDfSG-6" edge="1">
          <mxGeometry relative="1" as="geometry" />
        </mxCell>
        <mxCell id="im__YNONFGmedxCCDfSG-4" value="dao" style="whiteSpace=wrap;html=1;" parent="1" vertex="1">
          <mxGeometry x="293.5" y="270" width="80" height="30" as="geometry" />
        </mxCell>
        <mxCell id="im__YNONFGmedxCCDfSG-9" style="edgeStyle=orthogonalEdgeStyle;rounded=0;orthogonalLoop=1;jettySize=auto;html=1;exitX=0.5;exitY=1;exitDx=0;exitDy=0;entryX=0.5;entryY=0;entryDx=0;entryDy=0;" parent="1" source="im__YNONFGmedxCCDfSG-6" target="im__YNONFGmedxCCDfSG-8" edge="1">
          <mxGeometry relative="1" as="geometry" />
        </mxCell>
        <mxCell id="im__YNONFGmedxCCDfSG-12" value="chân không" style="edgeLabel;html=1;align=center;verticalAlign=middle;resizable=0;points=[];" parent="im__YNONFGmedxCCDfSG-9" vertex="1" connectable="0">
          <mxGeometry x="-0.0098" y="2" relative="1" as="geometry">
            <mxPoint as="offset" />
          </mxGeometry>
        </mxCell>
        <mxCell id="im__YNONFGmedxCCDfSG-17" style="edgeStyle=orthogonalEdgeStyle;rounded=0;orthogonalLoop=1;jettySize=auto;html=1;exitX=0.5;exitY=1;exitDx=0;exitDy=0;entryX=1;entryY=0.75;entryDx=0;entryDy=0;" parent="1" source="im__YNONFGmedxCCDfSG-6" target="im__YNONFGmedxCCDfSG-14" edge="1">
          <mxGeometry relative="1" as="geometry" />
        </mxCell>
        <mxCell id="im__YNONFGmedxCCDfSG-18" value="0&amp;nbsp; chân không" style="edgeLabel;html=1;align=center;verticalAlign=middle;resizable=0;points=[];" parent="im__YNONFGmedxCCDfSG-17" vertex="1" connectable="0">
          <mxGeometry x="-0.4908" y="-4" relative="1" as="geometry">
            <mxPoint as="offset" />
          </mxGeometry>
        </mxCell>
        <mxCell id="im__YNONFGmedxCCDfSG-6" value="SS in" style="whiteSpace=wrap;html=1;" parent="1" vertex="1">
          <mxGeometry x="285.25" y="330" width="96.5" height="30" as="geometry" />
        </mxCell>
        <mxCell id="im__YNONFGmedxCCDfSG-15" style="edgeStyle=orthogonalEdgeStyle;rounded=0;orthogonalLoop=1;jettySize=auto;html=1;exitX=0.5;exitY=1;exitDx=0;exitDy=0;entryX=0.5;entryY=0;entryDx=0;entryDy=0;" parent="1" source="im__YNONFGmedxCCDfSG-8" target="im__YNONFGmedxCCDfSG-14" edge="1">
          <mxGeometry relative="1" as="geometry" />
        </mxCell>
        <mxCell id="im__YNONFGmedxCCDfSG-16" value="dl d210" style="edgeLabel;html=1;align=center;verticalAlign=middle;resizable=0;points=[];" parent="im__YNONFGmedxCCDfSG-15" vertex="1" connectable="0">
          <mxGeometry x="-0.2" relative="1" as="geometry">
            <mxPoint as="offset" />
          </mxGeometry>
        </mxCell>
        <mxCell id="im__YNONFGmedxCCDfSG-8" value="dao, van hut" style="whiteSpace=wrap;html=1;" parent="1" vertex="1">
          <mxGeometry x="140" y="400" width="90" height="30" as="geometry" />
        </mxCell>
        <mxCell id="im__YNONFGmedxCCDfSG-20" style="edgeStyle=orthogonalEdgeStyle;rounded=0;orthogonalLoop=1;jettySize=auto;html=1;exitX=0.5;exitY=1;exitDx=0;exitDy=0;entryX=0.5;entryY=0;entryDx=0;entryDy=0;" parent="1" source="im__YNONFGmedxCCDfSG-14" target="im__YNONFGmedxCCDfSG-19" edge="1">
          <mxGeometry relative="1" as="geometry" />
        </mxCell>
        <mxCell id="im__YNONFGmedxCCDfSG-21" value="m8029" style="edgeLabel;html=1;align=center;verticalAlign=middle;resizable=0;points=[];" parent="im__YNONFGmedxCCDfSG-20" vertex="1" connectable="0">
          <mxGeometry x="-0.0058" y="2" relative="1" as="geometry">
            <mxPoint as="offset" />
          </mxGeometry>
        </mxCell>
        <mxCell id="im__YNONFGmedxCCDfSG-14" value="dao, van hút,DBD" style="whiteSpace=wrap;html=1;" parent="1" vertex="1">
          <mxGeometry x="125" y="470" width="120" height="60" as="geometry" />
        </mxCell>
        <mxCell id="im__YNONFGmedxCCDfSG-19" value="XLN,van hút," style="whiteSpace=wrap;html=1;" parent="1" vertex="1">
          <mxGeometry x="174" y="585" width="120" height="60" as="geometry" />
        </mxCell>
        <mxCell id="im__YNONFGmedxCCDfSG-26" style="edgeStyle=orthogonalEdgeStyle;rounded=0;orthogonalLoop=1;jettySize=auto;html=1;exitX=0.5;exitY=1;exitDx=0;exitDy=0;entryX=0.5;entryY=0;entryDx=0;entryDy=0;" parent="1" source="im__YNONFGmedxCCDfSG-22" target="im__YNONFGmedxCCDfSG-25" edge="1">
          <mxGeometry relative="1" as="geometry" />
        </mxCell>
        <mxCell id="im__YNONFGmedxCCDfSG-27" value="d226" style="edgeLabel;html=1;align=center;verticalAlign=middle;resizable=0;points=[];" parent="im__YNONFGmedxCCDfSG-26" vertex="1" connectable="0">
          <mxGeometry x="-0.1126" y="5" relative="1" as="geometry">
            <mxPoint as="offset" />
          </mxGeometry>
        </mxCell>
        <mxCell id="im__YNONFGmedxCCDfSG-22" value="XLN, van hút" style="whiteSpace=wrap;html=1;" parent="1" vertex="1">
          <mxGeometry x="190" y="700" width="120" height="60" as="geometry" />
        </mxCell>
        <mxCell id="im__YNONFGmedxCCDfSG-23" style="edgeStyle=orthogonalEdgeStyle;rounded=0;orthogonalLoop=1;jettySize=auto;html=1;exitX=0.5;exitY=1;exitDx=0;exitDy=0;entryX=0.417;entryY=0;entryDx=0;entryDy=0;entryPerimeter=0;" parent="1" source="im__YNONFGmedxCCDfSG-19" target="im__YNONFGmedxCCDfSG-22" edge="1">
          <mxGeometry relative="1" as="geometry" />
        </mxCell>
        <mxCell id="im__YNONFGmedxCCDfSG-24" value="cb x2" style="edgeLabel;html=1;align=center;verticalAlign=middle;resizable=0;points=[];" parent="im__YNONFGmedxCCDfSG-23" vertex="1" connectable="0">
          <mxGeometry x="-0.1607" y="-2" relative="1" as="geometry">
            <mxPoint as="offset" />
          </mxGeometry>
        </mxCell>
        <mxCell id="im__YNONFGmedxCCDfSG-35" style="edgeStyle=orthogonalEdgeStyle;rounded=0;orthogonalLoop=1;jettySize=auto;html=1;exitX=0.5;exitY=1;exitDx=0;exitDy=0;entryX=0.5;entryY=0;entryDx=0;entryDy=0;" parent="1" source="im__YNONFGmedxCCDfSG-25" target="im__YNONFGmedxCCDfSG-34" edge="1">
          <mxGeometry relative="1" as="geometry" />
        </mxCell>
        <mxCell id="im__YNONFGmedxCCDfSG-36" value="m8029" style="edgeLabel;html=1;align=center;verticalAlign=middle;resizable=0;points=[];" parent="im__YNONFGmedxCCDfSG-35" vertex="1" connectable="0">
          <mxGeometry x="-0.24" y="-1" relative="1" as="geometry">
            <mxPoint as="offset" />
          </mxGeometry>
        </mxCell>
        <mxCell id="im__YNONFGmedxCCDfSG-25" value="XLN, van hút, XL hở, DKT" style="whiteSpace=wrap;html=1;" parent="1" vertex="1">
          <mxGeometry x="190" y="820" width="120" height="60" as="geometry" />
        </mxCell>
        <mxCell id="im__YNONFGmedxCCDfSG-28" value="m131" style="text;html=1;align=center;verticalAlign=middle;resizable=0;points=[];autosize=1;strokeColor=none;fillColor=none;" parent="1" vertex="1">
          <mxGeometry x="308.5" y="715" width="50" height="30" as="geometry" />
        </mxCell>
        <mxCell id="im__YNONFGmedxCCDfSG-29" value="m122" style="text;html=1;align=center;verticalAlign=middle;resizable=0;points=[];autosize=1;strokeColor=none;fillColor=none;" parent="1" vertex="1">
          <mxGeometry x="288.5" y="600" width="50" height="30" as="geometry" />
        </mxCell>
        <mxCell id="im__YNONFGmedxCCDfSG-30" value="m121" style="text;html=1;align=center;verticalAlign=middle;resizable=0;points=[];autosize=1;strokeColor=none;fillColor=none;" parent="1" vertex="1">
          <mxGeometry x="75" y="485" width="50" height="30" as="geometry" />
        </mxCell>
        <mxCell id="im__YNONFGmedxCCDfSG-31" value="m120" style="text;html=1;align=center;verticalAlign=middle;resizable=0;points=[];autosize=1;strokeColor=none;fillColor=none;" parent="1" vertex="1">
          <mxGeometry x="90" y="400" width="50" height="30" as="geometry" />
        </mxCell>
        <mxCell id="im__YNONFGmedxCCDfSG-33" value="m123" style="text;html=1;align=center;verticalAlign=middle;resizable=0;points=[];autosize=1;strokeColor=none;fillColor=none;" parent="1" vertex="1">
          <mxGeometry x="126.5" y="835" width="50" height="30" as="geometry" />
        </mxCell>
        <mxCell id="im__YNONFGmedxCCDfSG-39" style="edgeStyle=orthogonalEdgeStyle;rounded=0;orthogonalLoop=1;jettySize=auto;html=1;exitX=0.5;exitY=1;exitDx=0;exitDy=0;" parent="1" source="im__YNONFGmedxCCDfSG-34" target="im__YNONFGmedxCCDfSG-38" edge="1">
          <mxGeometry relative="1" as="geometry">
            <Array as="points">
              <mxPoint x="250" y="1030" />
              <mxPoint x="108" y="1030" />
            </Array>
          </mxGeometry>
        </mxCell>
        <mxCell id="im__YNONFGmedxCCDfSG-41" value="&amp;nbsp;chân không" style="edgeLabel;html=1;align=center;verticalAlign=middle;resizable=0;points=[];" parent="im__YNONFGmedxCCDfSG-39" vertex="1" connectable="0">
          <mxGeometry x="0.068" y="-1" relative="1" as="geometry">
            <mxPoint as="offset" />
          </mxGeometry>
        </mxCell>
        <mxCell id="im__YNONFGmedxCCDfSG-58" style="edgeStyle=orthogonalEdgeStyle;rounded=0;orthogonalLoop=1;jettySize=auto;html=1;exitX=0.5;exitY=1;exitDx=0;exitDy=0;" parent="1" source="im__YNONFGmedxCCDfSG-34" target="im__YNONFGmedxCCDfSG-57" edge="1">
          <mxGeometry relative="1" as="geometry">
            <Array as="points">
              <mxPoint x="250" y="1030" />
              <mxPoint x="354" y="1030" />
            </Array>
          </mxGeometry>
        </mxCell>
        <mxCell id="im__YNONFGmedxCCDfSG-60" value="n lan sau" style="edgeLabel;html=1;align=center;verticalAlign=middle;resizable=0;points=[];" parent="im__YNONFGmedxCCDfSG-58" vertex="1" connectable="0">
          <mxGeometry x="-0.2471" y="3" relative="1" as="geometry">
            <mxPoint x="44" y="13" as="offset" />
          </mxGeometry>
        </mxCell>
        <mxCell id="sRdTrmRnwQMM6a8bkQbD-2" style="edgeStyle=orthogonalEdgeStyle;rounded=0;orthogonalLoop=1;jettySize=auto;html=1;exitX=0.5;exitY=1;exitDx=0;exitDy=0;entryX=0.5;entryY=0;entryDx=0;entryDy=0;" edge="1" parent="1" source="im__YNONFGmedxCCDfSG-34" target="im__YNONFGmedxCCDfSG-61">
          <mxGeometry relative="1" as="geometry">
            <Array as="points">
              <mxPoint x="250" y="1030" />
              <mxPoint x="490" y="1030" />
            </Array>
          </mxGeometry>
        </mxCell>
        <mxCell id="sRdTrmRnwQMM6a8bkQbD-3" value="đếm đủ" style="edgeLabel;html=1;align=center;verticalAlign=middle;resizable=0;points=[];" vertex="1" connectable="0" parent="sRdTrmRnwQMM6a8bkQbD-2">
          <mxGeometry x="-0.8774" y="3" relative="1" as="geometry">
            <mxPoint as="offset" />
          </mxGeometry>
        </mxCell>
        <mxCell id="sRdTrmRnwQMM6a8bkQbD-5" style="edgeStyle=orthogonalEdgeStyle;rounded=0;orthogonalLoop=1;jettySize=auto;html=1;exitX=1;exitY=0.5;exitDx=0;exitDy=0;entryX=0.5;entryY=0;entryDx=0;entryDy=0;" edge="1" parent="1" source="im__YNONFGmedxCCDfSG-34" target="sRdTrmRnwQMM6a8bkQbD-4">
          <mxGeometry relative="1" as="geometry" />
        </mxCell>
        <mxCell id="sRdTrmRnwQMM6a8bkQbD-6" value="đếm thiếu" style="edgeLabel;html=1;align=center;verticalAlign=middle;resizable=0;points=[];" vertex="1" connectable="0" parent="sRdTrmRnwQMM6a8bkQbD-5">
          <mxGeometry x="-0.1208" y="1" relative="1" as="geometry">
            <mxPoint as="offset" />
          </mxGeometry>
        </mxCell>
        <mxCell id="im__YNONFGmedxCCDfSG-34" value="counte, dao, XLN, van hút" style="whiteSpace=wrap;html=1;" parent="1" vertex="1">
          <mxGeometry x="190" y="930" width="120" height="60" as="geometry" />
        </mxCell>
        <mxCell id="im__YNONFGmedxCCDfSG-37" value="m124" style="text;html=1;align=center;verticalAlign=middle;resizable=0;points=[];autosize=1;strokeColor=none;fillColor=none;" parent="1" vertex="1">
          <mxGeometry x="126.5" y="945" width="50" height="30" as="geometry" />
        </mxCell>
        <mxCell id="im__YNONFGmedxCCDfSG-44" style="edgeStyle=orthogonalEdgeStyle;rounded=0;orthogonalLoop=1;jettySize=auto;html=1;exitX=0.5;exitY=1;exitDx=0;exitDy=0;entryX=0.5;entryY=0;entryDx=0;entryDy=0;" parent="1" source="im__YNONFGmedxCCDfSG-38" target="im__YNONFGmedxCCDfSG-43" edge="1">
          <mxGeometry relative="1" as="geometry" />
        </mxCell>
        <mxCell id="im__YNONFGmedxCCDfSG-48" value="d212 + N lan sau" style="edgeLabel;html=1;align=center;verticalAlign=middle;resizable=0;points=[];" parent="im__YNONFGmedxCCDfSG-44" vertex="1" connectable="0">
          <mxGeometry x="-0.2867" y="3" relative="1" as="geometry">
            <mxPoint as="offset" />
          </mxGeometry>
        </mxCell>
        <mxCell id="im__YNONFGmedxCCDfSG-38" value="van hút" style="whiteSpace=wrap;html=1;" parent="1" vertex="1">
          <mxGeometry x="55" y="1040" width="105" height="40" as="geometry" />
        </mxCell>
        <mxCell id="im__YNONFGmedxCCDfSG-42" value="m128" style="text;html=1;align=center;verticalAlign=middle;resizable=0;points=[];autosize=1;strokeColor=none;fillColor=none;" parent="1" vertex="1">
          <mxGeometry x="-10" y="1045" width="50" height="30" as="geometry" />
        </mxCell>
        <mxCell id="im__YNONFGmedxCCDfSG-50" style="edgeStyle=orthogonalEdgeStyle;rounded=0;orthogonalLoop=1;jettySize=auto;html=1;exitX=0.5;exitY=1;exitDx=0;exitDy=0;entryX=0;entryY=0.5;entryDx=0;entryDy=0;" parent="1" source="im__YNONFGmedxCCDfSG-43" target="im__YNONFGmedxCCDfSG-6" edge="1">
          <mxGeometry relative="1" as="geometry">
            <Array as="points">
              <mxPoint x="108" y="1220" />
              <mxPoint x="-30" y="1220" />
              <mxPoint x="-30" y="345" />
            </Array>
          </mxGeometry>
        </mxCell>
        <mxCell id="im__YNONFGmedxCCDfSG-51" value="d218" style="edgeLabel;html=1;align=center;verticalAlign=middle;resizable=0;points=[];" parent="im__YNONFGmedxCCDfSG-50" vertex="1" connectable="0">
          <mxGeometry x="-0.5906" y="-3" relative="1" as="geometry">
            <mxPoint as="offset" />
          </mxGeometry>
        </mxCell>
        <mxCell id="im__YNONFGmedxCCDfSG-43" value="m130 + m129" style="whiteSpace=wrap;html=1;" parent="1" vertex="1">
          <mxGeometry x="47.5" y="1140" width="120" height="60" as="geometry" />
        </mxCell>
        <mxCell id="im__YNONFGmedxCCDfSG-59" style="edgeStyle=orthogonalEdgeStyle;rounded=0;orthogonalLoop=1;jettySize=auto;html=1;exitX=0.5;exitY=1;exitDx=0;exitDy=0;entryX=1;entryY=0.5;entryDx=0;entryDy=0;" parent="1" source="im__YNONFGmedxCCDfSG-57" target="im__YNONFGmedxCCDfSG-43" edge="1">
          <mxGeometry relative="1" as="geometry" />
        </mxCell>
        <mxCell id="im__YNONFGmedxCCDfSG-57" value="m129 set" style="whiteSpace=wrap;html=1;" parent="1" vertex="1">
          <mxGeometry x="294" y="1060" width="120" height="60" as="geometry" />
        </mxCell>
        <mxCell id="im__YNONFGmedxCCDfSG-61" value="dao" style="whiteSpace=wrap;html=1;" parent="1" vertex="1">
          <mxGeometry x="430" y="1060" width="120" height="60" as="geometry" />
        </mxCell>
        <mxCell id="sRdTrmRnwQMM6a8bkQbD-10" style="edgeStyle=orthogonalEdgeStyle;rounded=0;orthogonalLoop=1;jettySize=auto;html=1;exitX=0.5;exitY=1;exitDx=0;exitDy=0;entryX=0.5;entryY=0;entryDx=0;entryDy=0;" edge="1" parent="1" source="sRdTrmRnwQMM6a8bkQbD-4" target="sRdTrmRnwQMM6a8bkQbD-9">
          <mxGeometry relative="1" as="geometry" />
        </mxCell>
        <mxCell id="sRdTrmRnwQMM6a8bkQbD-11" value="dl d208" style="edgeLabel;html=1;align=center;verticalAlign=middle;resizable=0;points=[];" vertex="1" connectable="0" parent="sRdTrmRnwQMM6a8bkQbD-10">
          <mxGeometry x="-0.1486" y="-1" relative="1" as="geometry">
            <mxPoint as="offset" />
          </mxGeometry>
        </mxCell>
        <mxCell id="sRdTrmRnwQMM6a8bkQbD-4" value="dao, XLN, van hút" style="whiteSpace=wrap;html=1;" vertex="1" parent="1">
          <mxGeometry x="680" y="1060" width="120" height="60" as="geometry" />
        </mxCell>
        <mxCell id="sRdTrmRnwQMM6a8bkQbD-7" value="m125" style="text;html=1;align=center;verticalAlign=middle;resizable=0;points=[];autosize=1;strokeColor=none;fillColor=none;" vertex="1" parent="1">
          <mxGeometry x="620" y="1075" width="50" height="30" as="geometry" />
        </mxCell>
        <mxCell id="sRdTrmRnwQMM6a8bkQbD-8" value="m133" style="text;html=1;align=center;verticalAlign=middle;resizable=0;points=[];autosize=1;strokeColor=none;fillColor=none;" vertex="1" parent="1">
          <mxGeometry x="545" y="1080" width="50" height="30" as="geometry" />
        </mxCell>
        <mxCell id="sRdTrmRnwQMM6a8bkQbD-14" style="edgeStyle=orthogonalEdgeStyle;rounded=0;orthogonalLoop=1;jettySize=auto;html=1;exitX=0.5;exitY=1;exitDx=0;exitDy=0;" edge="1" parent="1" source="sRdTrmRnwQMM6a8bkQbD-9" target="sRdTrmRnwQMM6a8bkQbD-13">
          <mxGeometry relative="1" as="geometry" />
        </mxCell>
        <mxCell id="sRdTrmRnwQMM6a8bkQbD-15" value="m8029" style="edgeLabel;html=1;align=center;verticalAlign=middle;resizable=0;points=[];" vertex="1" connectable="0" parent="sRdTrmRnwQMM6a8bkQbD-14">
          <mxGeometry x="-0.11" y="-2" relative="1" as="geometry">
            <mxPoint as="offset" />
          </mxGeometry>
        </mxCell>
        <mxCell id="sRdTrmRnwQMM6a8bkQbD-9" value="dao, XLN, van hút, DBD" style="whiteSpace=wrap;html=1;" vertex="1" parent="1">
          <mxGeometry x="680" y="1190" width="120" height="60" as="geometry" />
        </mxCell>
        <mxCell id="sRdTrmRnwQMM6a8bkQbD-12" value="m126" style="text;html=1;align=center;verticalAlign=middle;resizable=0;points=[];autosize=1;strokeColor=none;fillColor=none;" vertex="1" parent="1">
          <mxGeometry x="620" y="1200" width="50" height="30" as="geometry" />
        </mxCell>
        <mxCell id="sRdTrmRnwQMM6a8bkQbD-18" style="edgeStyle=orthogonalEdgeStyle;rounded=0;orthogonalLoop=1;jettySize=auto;html=1;exitX=0.5;exitY=1;exitDx=0;exitDy=0;" edge="1" parent="1" source="sRdTrmRnwQMM6a8bkQbD-13" target="sRdTrmRnwQMM6a8bkQbD-17">
          <mxGeometry relative="1" as="geometry" />
        </mxCell>
        <mxCell id="sRdTrmRnwQMM6a8bkQbD-19" value="dl d208" style="edgeLabel;html=1;align=center;verticalAlign=middle;resizable=0;points=[];" vertex="1" connectable="0" parent="sRdTrmRnwQMM6a8bkQbD-18">
          <mxGeometry x="-0.3" relative="1" as="geometry">
            <mxPoint as="offset" />
          </mxGeometry>
        </mxCell>
        <mxCell id="sRdTrmRnwQMM6a8bkQbD-13" value="XLN, van hút" style="whiteSpace=wrap;html=1;" vertex="1" parent="1">
          <mxGeometry x="680" y="1290" width="120" height="60" as="geometry" />
        </mxCell>
        <mxCell id="sRdTrmRnwQMM6a8bkQbD-16" value="m127" style="text;html=1;align=center;verticalAlign=middle;resizable=0;points=[];autosize=1;strokeColor=none;fillColor=none;" vertex="1" parent="1">
          <mxGeometry x="615" y="1308" width="50" height="30" as="geometry" />
        </mxCell>
        <mxCell id="sRdTrmRnwQMM6a8bkQbD-24" value="" style="edgeStyle=orthogonalEdgeStyle;rounded=0;orthogonalLoop=1;jettySize=auto;html=1;" edge="1" parent="1" source="sRdTrmRnwQMM6a8bkQbD-17" target="sRdTrmRnwQMM6a8bkQbD-23">
          <mxGeometry relative="1" as="geometry" />
        </mxCell>
        <mxCell id="sRdTrmRnwQMM6a8bkQbD-25" value="cb x6" style="edgeLabel;html=1;align=center;verticalAlign=middle;resizable=0;points=[];" vertex="1" connectable="0" parent="sRdTrmRnwQMM6a8bkQbD-24">
          <mxGeometry x="-0.3133" y="-2" relative="1" as="geometry">
            <mxPoint as="offset" />
          </mxGeometry>
        </mxCell>
        <mxCell id="sRdTrmRnwQMM6a8bkQbD-17" value="XLN, van hút" style="whiteSpace=wrap;html=1;" vertex="1" parent="1">
          <mxGeometry x="680" y="1410" width="120" height="60" as="geometry" />
        </mxCell>
        <mxCell id="sRdTrmRnwQMM6a8bkQbD-20" value="m133" style="text;html=1;align=center;verticalAlign=middle;resizable=0;points=[];autosize=1;strokeColor=none;fillColor=none;" vertex="1" parent="1">
          <mxGeometry x="610" y="1425" width="50" height="30" as="geometry" />
        </mxCell>
        <mxCell id="sRdTrmRnwQMM6a8bkQbD-33" style="edgeStyle=orthogonalEdgeStyle;rounded=0;orthogonalLoop=1;jettySize=auto;html=1;exitX=0.5;exitY=1;exitDx=0;exitDy=0;entryX=1;entryY=0.25;entryDx=0;entryDy=0;" edge="1" parent="1" source="sRdTrmRnwQMM6a8bkQbD-23" target="im__YNONFGmedxCCDfSG-25">
          <mxGeometry relative="1" as="geometry">
            <Array as="points">
              <mxPoint x="740" y="1610" />
              <mxPoint x="920" y="1610" />
              <mxPoint x="920" y="835" />
            </Array>
          </mxGeometry>
        </mxCell>
        <mxCell id="sRdTrmRnwQMM6a8bkQbD-23" value="timer d226" style="whiteSpace=wrap;html=1;" vertex="1" parent="1">
          <mxGeometry x="680" y="1530" width="120" height="60" as="geometry" />
        </mxCell>
      </root>
    </mxGraphModel>
  </diagram>
</mxfile>
